<mxfile host="534e8fa5-75ba-4b82-8ff3-f9c25602e154" modified="2020-09-04T06:49:38.190Z" agent="5.0 (Windows NT 10.0; Win64; x64) AppleWebKit/537.36 (KHTML, like Gecko) Code/1.48.2 Chrome/78.0.3904.130 Electron/7.3.2 Safari/537.36" etag="G2lGWPt2oL2Rhcx6lAOX" version="13.1.3">
    <diagram id="6hGFLwfOUW9BJ-s0fimq" name="Page-1">
        <mxGraphModel dx="1521" dy="700" grid="1" gridSize="10" guides="1" tooltips="1" connect="1" arrows="1" fold="1" page="1" pageScale="1" pageWidth="600" pageHeight="500" math="0" shadow="0">
            <root>
                <mxCell id="0"/>
                <mxCell id="1" parent="0"/>
                <mxCell id="72" value="" style="rounded=0;whiteSpace=wrap;html=1;strokeWidth=3;fillColor=none;" vertex="1" parent="1">
                    <mxGeometry x="30" y="20" width="254.94" height="460" as="geometry"/>
                </mxCell>
                <mxCell id="4" value="&lt;span style=&quot;font-size: 20px&quot;&gt;Google Map&lt;/span&gt;" style="rounded=0;whiteSpace=wrap;html=1;fontFamily=微軟正黑體;fontSize=24;fontStyle=1;strokeWidth=3;shadow=0;glass=0;comic=0;" parent="1" vertex="1">
                    <mxGeometry x="40" y="80" width="230" height="150" as="geometry"/>
                </mxCell>
                <mxCell id="63" value="&lt;span style=&quot;font-size: 20px&quot;&gt;Header (Fixed)&lt;/span&gt;" style="rounded=0;whiteSpace=wrap;html=1;fontFamily=微軟正黑體;fontSize=24;fontStyle=1;strokeWidth=3;shadow=0;glass=0;comic=0;" vertex="1" parent="1">
                    <mxGeometry x="30" y="20" width="254.94" height="50" as="geometry"/>
                </mxCell>
                <mxCell id="66" value="&lt;span style=&quot;font-size: 20px&quot;&gt;A. Map Info&amp;nbsp;&lt;/span&gt;" style="rounded=0;whiteSpace=wrap;html=1;fontFamily=微軟正黑體;fontSize=24;fontStyle=1;strokeWidth=3;shadow=0;glass=0;comic=0;align=center;" vertex="1" parent="1">
                    <mxGeometry x="40" y="240" width="230" height="40" as="geometry"/>
                </mxCell>
                <mxCell id="73" value="" style="rounded=0;whiteSpace=wrap;html=1;strokeWidth=3;fillColor=none;" vertex="1" parent="1">
                    <mxGeometry x="320" y="20" width="254.94" height="460" as="geometry"/>
                </mxCell>
                <mxCell id="76" value="&lt;span style=&quot;font-size: 20px&quot;&gt;A. Map Info&amp;nbsp;&lt;/span&gt;" style="rounded=0;whiteSpace=wrap;html=1;fontFamily=微軟正黑體;fontSize=24;fontStyle=1;strokeWidth=3;shadow=0;glass=0;comic=0;align=center;" vertex="1" parent="1">
                    <mxGeometry x="332.47" y="60" width="230" height="40" as="geometry"/>
                </mxCell>
                <mxCell id="78" value="&lt;span style=&quot;font-size: 20px&quot;&gt;B. Map Info&amp;nbsp;&lt;/span&gt;" style="rounded=0;whiteSpace=wrap;html=1;fontFamily=微軟正黑體;fontSize=24;fontStyle=1;strokeWidth=3;shadow=0;glass=0;comic=0;align=center;" vertex="1" parent="1">
                    <mxGeometry x="40" y="280" width="230" height="40" as="geometry"/>
                </mxCell>
                <mxCell id="79" value="&lt;span style=&quot;font-size: 20px&quot;&gt;C. Map Info&amp;nbsp;&lt;/span&gt;" style="rounded=0;whiteSpace=wrap;html=1;fontFamily=微軟正黑體;fontSize=24;fontStyle=1;strokeWidth=3;shadow=0;glass=0;comic=0;align=center;" vertex="1" parent="1">
                    <mxGeometry x="40" y="320" width="230" height="40" as="geometry"/>
                </mxCell>
                <mxCell id="80" value="&lt;span style=&quot;font-size: 20px&quot;&gt;D. Map Info&amp;nbsp;&lt;/span&gt;" style="rounded=0;whiteSpace=wrap;html=1;fontFamily=微軟正黑體;fontSize=24;fontStyle=1;strokeWidth=3;shadow=0;glass=0;comic=0;align=center;" vertex="1" parent="1">
                    <mxGeometry x="40" y="360" width="230" height="40" as="geometry"/>
                </mxCell>
                <mxCell id="81" value="&lt;span style=&quot;font-size: 20px&quot;&gt;E. Map Info&amp;nbsp;&lt;/span&gt;" style="rounded=0;whiteSpace=wrap;html=1;fontFamily=微軟正黑體;fontSize=24;fontStyle=1;strokeWidth=3;shadow=0;glass=0;comic=0;align=center;" vertex="1" parent="1">
                    <mxGeometry x="40" y="400" width="230" height="40" as="geometry"/>
                </mxCell>
                <mxCell id="64" value="&lt;span style=&quot;font-size: 20px&quot;&gt;Footer (Fixed)&lt;/span&gt;" style="rounded=0;whiteSpace=wrap;html=1;fontFamily=微軟正黑體;fontSize=24;fontStyle=1;strokeWidth=3;shadow=0;glass=0;comic=0;" vertex="1" parent="1">
                    <mxGeometry x="30" y="430" width="254.94" height="50" as="geometry"/>
                </mxCell>
                <mxCell id="75" value="&lt;span style=&quot;font-size: 20px&quot;&gt;Header (Fixed)&lt;/span&gt;" style="rounded=0;whiteSpace=wrap;html=1;fontFamily=微軟正黑體;fontSize=24;fontStyle=1;strokeWidth=3;shadow=0;glass=0;comic=0;" vertex="1" parent="1">
                    <mxGeometry x="320" y="20" width="254.94" height="50" as="geometry"/>
                </mxCell>
                <mxCell id="84" value="&lt;span style=&quot;font-size: 20px&quot;&gt;B. Map Info&amp;nbsp;&lt;/span&gt;" style="rounded=0;whiteSpace=wrap;html=1;fontFamily=微軟正黑體;fontSize=24;fontStyle=1;strokeWidth=3;shadow=0;glass=0;comic=0;align=center;" vertex="1" parent="1">
                    <mxGeometry x="332.47" y="100" width="230" height="40" as="geometry"/>
                </mxCell>
                <mxCell id="85" value="&lt;span style=&quot;font-size: 20px&quot;&gt;C. Map Info&amp;nbsp;&lt;/span&gt;" style="rounded=0;whiteSpace=wrap;html=1;fontFamily=微軟正黑體;fontSize=24;fontStyle=1;strokeWidth=3;shadow=0;glass=0;comic=0;align=center;" vertex="1" parent="1">
                    <mxGeometry x="332.47" y="140" width="230" height="40" as="geometry"/>
                </mxCell>
                <mxCell id="86" value="&lt;span style=&quot;font-size: 20px&quot;&gt;D. Map Info&amp;nbsp;&lt;/span&gt;" style="rounded=0;whiteSpace=wrap;html=1;fontFamily=微軟正黑體;fontSize=24;fontStyle=1;strokeWidth=3;shadow=0;glass=0;comic=0;align=center;" vertex="1" parent="1">
                    <mxGeometry x="332.47" y="180" width="230" height="40" as="geometry"/>
                </mxCell>
                <mxCell id="87" value="&lt;span style=&quot;font-size: 20px&quot;&gt;E. Map Info&amp;nbsp;&lt;/span&gt;" style="rounded=0;whiteSpace=wrap;html=1;fontFamily=微軟正黑體;fontSize=24;fontStyle=1;strokeWidth=3;shadow=0;glass=0;comic=0;align=center;" vertex="1" parent="1">
                    <mxGeometry x="332.47" y="220" width="230" height="40" as="geometry"/>
                </mxCell>
                <mxCell id="88" value="&lt;span style=&quot;font-size: 20px&quot;&gt;F. Map Info&amp;nbsp;&lt;/span&gt;" style="rounded=0;whiteSpace=wrap;html=1;fontFamily=微軟正黑體;fontSize=24;fontStyle=1;strokeWidth=3;shadow=0;glass=0;comic=0;align=center;" vertex="1" parent="1">
                    <mxGeometry x="332.47" y="260" width="230" height="40" as="geometry"/>
                </mxCell>
                <mxCell id="89" value="&lt;span style=&quot;font-size: 20px&quot;&gt;G. Map Info&amp;nbsp;&lt;/span&gt;" style="rounded=0;whiteSpace=wrap;html=1;fontFamily=微軟正黑體;fontSize=24;fontStyle=1;strokeWidth=3;shadow=0;glass=0;comic=0;align=center;" vertex="1" parent="1">
                    <mxGeometry x="332.47" y="300" width="230" height="40" as="geometry"/>
                </mxCell>
                <mxCell id="90" value="&lt;span style=&quot;font-size: 20px&quot;&gt;H. Map Info&amp;nbsp;&lt;/span&gt;" style="rounded=0;whiteSpace=wrap;html=1;fontFamily=微軟正黑體;fontSize=24;fontStyle=1;strokeWidth=3;shadow=0;glass=0;comic=0;align=center;" vertex="1" parent="1">
                    <mxGeometry x="332.47" y="340" width="230" height="40" as="geometry"/>
                </mxCell>
                <mxCell id="91" value="&lt;span style=&quot;font-size: 20px&quot;&gt;I. Map Info&amp;nbsp;&lt;/span&gt;" style="rounded=0;whiteSpace=wrap;html=1;fontFamily=微軟正黑體;fontSize=24;fontStyle=1;strokeWidth=3;shadow=0;glass=0;comic=0;align=center;" vertex="1" parent="1">
                    <mxGeometry x="332.47" y="380" width="230" height="40" as="geometry"/>
                </mxCell>
                <mxCell id="92" value="&lt;span style=&quot;font-size: 20px&quot;&gt;I. Map Info&amp;nbsp;&lt;/span&gt;" style="rounded=0;whiteSpace=wrap;html=1;fontFamily=微軟正黑體;fontSize=24;fontStyle=1;strokeWidth=3;shadow=0;glass=0;comic=0;align=center;" vertex="1" parent="1">
                    <mxGeometry x="332.47" y="420" width="230" height="40" as="geometry"/>
                </mxCell>
                <mxCell id="77" value="&lt;span style=&quot;font-size: 20px&quot;&gt;Footer (Fixed)&lt;/span&gt;" style="rounded=0;whiteSpace=wrap;html=1;fontFamily=微軟正黑體;fontSize=24;fontStyle=1;strokeWidth=3;shadow=0;glass=0;comic=0;" vertex="1" parent="1">
                    <mxGeometry x="320" y="430" width="254.94" height="50" as="geometry"/>
                </mxCell>
            </root>
        </mxGraphModel>
    </diagram>
</mxfile>